<svg xmlns="http://www.w3.org/2000/svg" width="25" height="25" viewBox="0 0 25 25">
    <g fill="none" fill-rule="evenodd">
        <g>
            <g>
                <g>
                    <path fill="#000" d="M18.125 22.917C9.27 22.905 2.095 15.73 2.083 6.875c0-2.646 2.146-4.792 4.792-4.792.27-.002.538.023.802.073.256.038.507.1.75.188.348.122.606.42.677.781l1.427 6.25c.078.345-.024.706-.27.958-.136.146-.146.157-1.428.823 1.026 2.251 2.827 4.059 5.073 5.094.677-1.292.688-1.302.834-1.438.252-.247.613-.348.958-.27l6.25 1.427c.35.081.633.337.75.677.088.247.154.502.198.76.042.262.063.527.062.792-.04 2.634-2.199 4.742-4.833 4.719zM6.875 4.167c-1.493.005-2.703 1.215-2.708 2.708.005 7.706 6.25 13.952 13.957 13.958 1.494-.005 2.703-1.215 2.709-2.708v-.344L16 16.667l-.302.573c-.469.906-.813 1.562-1.688 1.208-3.495-1.251-6.242-4.01-7.479-7.51-.375-.813.334-1.188 1.23-1.657L8.332 9 7.22 4.167h-.344z" transform="translate(-1179 -41) translate(1179 40) translate(0 1)"/>
                </g>
            </g>
        </g>
    </g>
</svg>
