<svg xmlns="http://www.w3.org/2000/svg" width="24" height="24" viewBox="0 0 24 24">
    <g fill="none" fill-rule="evenodd">
        <g>
            <path fill="#000" d="M20.06 16c.52 0 .94.42.94.94v.12c0 .52-.42.94-.94.94H3.94c-.52 0-.94-.42-.94-.94v-.12c0-.52.42-.94.94-.94h16.12zm0-5c.52 0 .94.42.94.94v.12c0 .52-.42.94-.94.94H7.94c-.52 0-.94-.42-.94-.94v-.12c0-.52.42-.94.94-.94h12.12zm-15.353.293c.39.39.39 1.024 0 1.414-.39.39-1.024.39-1.414 0-.39-.39-.39-1.024 0-1.414.39-.39 1.024-.39 1.414 0zM20.06 6c.52 0 .94.42.94.94v.12c0 .52-.42.94-.94.94H3.94C3.42 8 3 7.58 3 7.06v-.12c0-.52.42-.94.94-.94h16.12z"/>
        </g>
    </g>
</svg>
